<?xml version="1.0" standalone="no"?>
<!DOCTYPE svg PUBLIC "-//W3C//DTD SVG 1.1//EN" "http://www.w3.org/Graphics/SVG/1.1/DTD/svg11.dtd">
<svg xmlns="http://www.w3.org/2000/svg" width="982" height="174" viewBox="0 0 982 174" fill="none">
<path d="M946.159 137H929.097L906.097 99.5625L882.972 137H866.909L897.284 89.625L868.972 45.625H885.534L906.784 80.25L927.909 45.625H943.972L915.534 90.0625L946.159 137Z" fill="#003964"/>
<path d="M161.043 110.125C161.043 115.542 159.709 120.208 157.043 124.125C154.418 128.042 150.626 131.042 145.668 133.125C140.751 135.208 134.876 136.25 128.043 136.25C124.709 136.25 121.522 136.062 118.48 135.688C115.438 135.312 112.563 134.771 109.855 134.062C107.188 133.312 104.751 132.417 102.543 131.375V117.25C106.251 118.875 110.397 120.354 114.98 121.688C119.563 122.979 124.23 123.625 128.98 123.625C132.855 123.625 136.063 123.125 138.605 122.125C141.188 121.083 143.105 119.625 144.355 117.75C145.605 115.833 146.23 113.604 146.23 111.062C146.23 108.354 145.501 106.062 144.043 104.188C142.584 102.312 140.376 100.604 137.418 99.0625C134.501 97.4792 130.834 95.7917 126.418 94C123.418 92.7917 120.543 91.4167 117.793 89.875C115.084 88.3333 112.668 86.5208 110.543 84.4375C108.418 82.3542 106.73 79.8958 105.48 77.0625C104.272 74.1875 103.668 70.8125 103.668 66.9375C103.668 61.7708 104.897 57.3542 107.355 53.6875C109.855 50.0208 113.355 47.2083 117.855 45.25C122.397 43.2917 127.688 42.3125 133.73 42.3125C138.522 42.3125 143.022 42.8125 147.23 43.8125C151.48 44.8125 155.647 46.2292 159.73 48.0625L154.98 60.125C151.23 58.5833 147.584 57.3542 144.043 56.4375C140.543 55.5208 136.959 55.0625 133.293 55.0625C130.126 55.0625 127.438 55.5417 125.23 56.5C123.022 57.4583 121.334 58.8125 120.168 60.5625C119.043 62.2708 118.48 64.3125 118.48 66.6875C118.48 69.3542 119.126 71.6042 120.418 73.4375C121.751 75.2292 123.793 76.875 126.543 78.375C129.334 79.875 132.918 81.5417 137.293 83.375C142.334 85.4583 146.605 87.6458 150.105 89.9375C153.647 92.2292 156.355 94.9792 158.23 98.1875C160.105 101.354 161.043 105.333 161.043 110.125ZM208.383 85.3125L230.07 43.625H246.258L215.883 99.5V135H200.945V100.062L170.508 43.625H186.82L208.383 85.3125ZM314.848 110.125C314.848 115.542 313.514 120.208 310.848 124.125C308.223 128.042 304.431 131.042 299.473 133.125C294.556 135.208 288.681 136.25 281.848 136.25C278.514 136.25 275.327 136.062 272.285 135.688C269.243 135.312 266.368 134.771 263.66 134.062C260.993 133.312 258.556 132.417 256.348 131.375V117.25C260.056 118.875 264.202 120.354 268.785 121.688C273.368 122.979 278.035 123.625 282.785 123.625C286.66 123.625 289.868 123.125 292.41 122.125C294.993 121.083 296.91 119.625 298.16 117.75C299.41 115.833 300.035 113.604 300.035 111.062C300.035 108.354 299.306 106.062 297.848 104.188C296.389 102.312 294.181 100.604 291.223 99.0625C288.306 97.4792 284.639 95.7917 280.223 94C277.223 92.7917 274.348 91.4167 271.598 89.875C268.889 88.3333 266.473 86.5208 264.348 84.4375C262.223 82.3542 260.535 79.8958 259.285 77.0625C258.077 74.1875 257.473 70.8125 257.473 66.9375C257.473 61.7708 258.702 57.3542 261.16 53.6875C263.66 50.0208 267.16 47.2083 271.66 45.25C276.202 43.2917 281.493 42.3125 287.535 42.3125C292.327 42.3125 296.827 42.8125 301.035 43.8125C305.285 44.8125 309.452 46.2292 313.535 48.0625L308.785 60.125C305.035 58.5833 301.389 57.3542 297.848 56.4375C294.348 55.5208 290.764 55.0625 287.098 55.0625C283.931 55.0625 281.243 55.5417 279.035 56.5C276.827 57.4583 275.139 58.8125 273.973 60.5625C272.848 62.2708 272.285 64.3125 272.285 66.6875C272.285 69.3542 272.931 71.6042 274.223 73.4375C275.556 75.2292 277.598 76.875 280.348 78.375C283.139 79.875 286.723 81.5417 291.098 83.375C296.139 85.4583 300.41 87.6458 303.91 89.9375C307.452 92.2292 310.16 94.9792 312.035 98.1875C313.91 101.354 314.848 105.333 314.848 110.125ZM368 135H352.938V56.375H326.188V43.625H394.688V56.375H368V135ZM464.277 135H412.527V43.625H464.277V56.25H427.527V81.0625H461.965V93.625H427.527V122.312H464.277V135ZM527.305 135L500.993 58.6875H500.43C500.555 60.3958 500.701 62.7292 500.868 65.6875C501.034 68.6458 501.18 71.8125 501.305 75.1875C501.43 78.5625 501.493 81.7917 501.493 84.875V135H487.868V43.625H508.93L534.243 116.562H534.618L560.805 43.625H581.805V135H567.493V84.125C567.493 81.3333 567.534 78.3125 567.618 75.0625C567.743 71.8125 567.868 68.7292 567.993 65.8125C568.159 62.8958 568.284 60.5625 568.368 58.8125H567.868L540.555 135H527.305ZM649.145 135L622.833 58.6875H622.27C622.395 60.3958 622.541 62.7292 622.708 65.6875C622.874 68.6458 623.02 71.8125 623.145 75.1875C623.27 78.5625 623.333 81.7917 623.333 84.875V135H609.708V43.625H630.77L656.083 116.562H656.458L682.645 43.625H703.645V135H689.333V84.125C689.333 81.3333 689.374 78.3125 689.458 75.0625C689.583 71.8125 689.708 68.7292 689.833 65.8125C689.999 62.8958 690.124 60.5625 690.208 58.8125H689.708L662.395 135H649.145Z" fill="#003964"/>
<path d="M976 13H77V156H723.999L787.249 34.8479C787.637 34.104 788.714 34.1405 789.051 34.9089L842.175 156H976V13Z" stroke="#003964" stroke-width="12"/>
</svg>